<svg xmlns="http://www.w3.org/2000/svg" viewBox="0 0 128 128" role="img" aria-label="Guisso">
	<circle cx="64" cy="64" r="62" fill="#050508" />
	<polygon points="21.58 80 35.58 54 49.58 80" fill="#ffffff" style="transform: translate(28.5px, -17px); transform-box: fill-box; transform-origin: center;" />
	<path
		fill="#ffffff"
		d="M83.18 25.87 L91.13 25.87 L91.13 78.5 Q91.13 85.87 88.09 91.66 Q85.05 97.45 79.56 100.73 Q74.06 104 67.04 104 L67.04 104 L44.35 104 L44.35 96.75 L67.04 96.75 Q74.18 96.75 78.68 91.6 Q83.18 86.46 83.18 78.5 L83.18 78.5 L83.18 72.54 Q79.79 77.22 74.88 79.85 Q69.96 82.48 64.12 82.48 L64.12 82.48 Q56.28 82.48 50.08 78.74 Q43.88 74.99 40.37 68.33 Q36.87 61.66 36.87 53.12 L36.87 53.12 Q36.87 44.7 40.32 38.09 Q43.77 31.49 49.91 27.74 Q56.05 24 63.88 24 L63.88 24 Q69.85 24 74.82 26.63 Q79.79 29.26 83.18 34.06 L83.18 34.06 L83.18 25.87 Z M63.88 75.23 Q69.5 75.23 73.88 72.42 Q78.27 69.61 80.73 64.58 Q83.18 59.56 83.18 53.24 L83.18 53.24 Q83.18 46.92 80.73 41.89 Q78.27 36.87 73.88 34.06 Q69.5 31.25 63.88 31.25 L63.88 31.25 Q58.39 31.25 54.06 34.06 Q49.73 36.87 47.27 41.84 Q44.82 46.81 44.82 53.12 L44.82 53.12 Q44.82 59.56 47.27 64.58 Q49.73 69.61 54.06 72.42 Q58.39 75.23 63.88 75.23 L63.88 75.23 Z"
	/>
</svg>
